<svg xmlns="http://www.w3.org/2000/svg" viewBox="0 0 3774.9 604.2"><path fill="none" stroke="#FF772B" stroke-width="33" stroke-miterlimit="10" d="M696 243.6s-34-38.5-38.2-55"/><path d="M2937.4 236.3V462h-31V272.3c-4.6 4.1-8.8 9.3-12.6 15.7-3.8 6.4-7.7 13-11.5 20-4.3 8.4-8.6 16.7-12.8 25-4.2 8.3-8.9 15.7-14 22.1-5.2 6.5-11 11.7-17.6 15.7-6.6 4-14.6 5.9-23.9 5.9-9.4 0-17.3-1.9-23.8-5.8-6.5-3.8-12.2-8.9-17.1-15.3-4.9-6.4-9.3-13.5-13.1-21.4-3.8-7.9-7.8-16-11.9-24.1-4.1-7.7-8.1-14.8-12.1-21.4-4-6.6-8.3-12.1-13.1-16.4V462h-31V236.3h30.2c7 2.4 13.1 5.8 18.5 10.3 5.4 4.4 10.3 9.5 14.6 15.1 4.3 5.6 8.2 11.6 11.7 18s6.9 12.7 10.3 18.9c3.6 7.2 6.7 13.7 9.4 19.6 2.6 5.9 5.3 10.8 7.9 14.8 2.6 4 5.5 7 8.5 9.2 3 2.2 6.7 3.2 11 3.2 4.6 0 8.4-1.1 11.5-3.2 3.1-2.2 6.1-5.2 8.8-9.2 2.8-4 5.5-8.9 8.3-14.8 2.8-5.9 5.9-12.4 9.5-19.6 3.1-6.2 6.5-12.5 10.1-18.9 3.6-6.4 7.6-12.4 11.9-18 4.3-5.6 9.2-10.7 14.6-15.1s11.6-7.9 18.5-10.3h30.2zm193.3 152.2v26.8c0 8.8-.1 16.6-.2 23.4-.1 6.8-.2 12.4-.2 16.6v6.7h-33.1v-18.8c-7 8.5-15.4 14.6-25.2 18.2-9.8 3.6-19.9 5.3-30.2 5.3-8.4 0-16.8-1.3-25.2-3.8-8.4-2.5-16-6.3-22.7-11.3-6.7-5-12.1-11.3-16.2-18.9-4.1-7.6-6.1-16.4-6.1-26.5 0-10.3 1.7-19.2 5.2-26.6 3.5-7.4 8.3-13.5 14.4-18.2 6.1-4.7 13.3-8.1 21.6-10.3 8.3-2.2 17.3-3.2 27.2-3.2 8.6 0 17.8.7 27.5 2.2 9.7 1.4 19.6 3.7 29.7 6.8v-1.4c.5-1.9.7-3.6.7-5v-4.7c0-6.5-1.3-12.1-3.8-16.9-2.5-4.8-5.8-8.8-9.9-11.9-4.1-3.1-8.7-5.5-13.9-7-5.2-1.6-10.5-2.3-16-2.3-5.3 0-10.4.6-15.5 1.8-5 1.2-9.6 3.1-13.7 5.8-4.1 2.6-7.4 5.9-10.1 9.9-2.6 4-4.1 8.7-4.3 14.2h-33.1c.7-10.6 3.3-19.8 7.7-27.7 4.4-7.9 10.1-14.5 16.9-19.6 6.8-5.2 14.6-9.1 23.2-11.7 8.6-2.6 17.5-4 26.6-4 10.6 0 20.5 1.4 29.9 4.3s17.6 7.4 24.7 13.7c7.1 6.2 12.7 14.2 16.9 23.9 4.2 9.7 6.4 21.5 6.7 35.5v1.8c3.6-.5 7.3-1.1 11-1.8s7.6-1.6 11.7-2.5v33.8l-22.2 3.4zm-33.1.8c-1.4 0-4-.5-7.7-1.5s-8-2-13-3.1c-4.9-1.1-10.2-2.1-15.8-3.1-5.6-1-11.1-1.5-16.4-1.5-4.1 0-8.5.4-13.1 1.3s-9 2.4-13 4.5c-4 2.2-7.3 5-9.9 8.3-2.6 3.4-4 7.6-4 12.7 0 4.1 1.1 7.9 3.4 11.2 2.3 3.4 5.3 6.3 9.2 8.9 3.8 2.5 8.3 4.5 13.3 6s10.4 2.2 16.2 2.2c6.7 0 13.1-1.1 19.1-3.4 6-2.3 11.3-5.1 16-8.5 4.7-3.4 8.4-7 11.2-10.9 2.8-3.9 4.3-7.4 4.5-10.5v-12.6zm235.1-107.7v181.1h-33.1V386H3207v76.7h-32.8V281.6h32.8v70.9h92.5v-70.9h33.2zm183.9 32.8h-100.8V462H3383V282h133.6v32.4zm99.4 151.9c-13.2 0-25.6-2.5-37.3-7.6-11.6-5-21.8-11.9-30.6-20.5s-15.7-18.7-20.7-30.2-7.6-23.8-7.6-36.7c0-13.2 2.5-25.6 7.6-37.1 5-11.5 11.9-21.6 20.7-30.2 8.8-8.6 19-15.5 30.6-20.5 11.6-5 24.1-7.6 37.3-7.6 13 0 25.3 2.5 36.9 7.6 11.6 5 21.8 11.9 30.4 20.5 8.6 8.6 15.5 18.7 20.5 30.2s7.6 23.9 7.6 37.1c0 13-2.5 25.2-7.6 36.7-5 11.5-11.9 21.6-20.5 30.2-8.6 8.6-18.8 15.5-30.4 20.5-11.7 5.1-24 7.6-36.9 7.6zm0 0c-13.2 0-25.6-2.5-37.3-7.6-11.6-5-21.8-11.9-30.6-20.5s-15.7-18.7-20.7-30.2-7.6-23.8-7.6-36.7c0-13.2 2.5-25.6 7.6-37.1 5-11.5 11.9-21.6 20.7-30.2 8.8-8.6 19-15.5 30.6-20.5 11.6-5 24.1-7.6 37.3-7.6 13 0 25.3 2.5 36.9 7.6 11.6 5 21.8 11.9 30.4 20.5 8.6 8.6 15.5 18.7 20.5 30.2s7.6 23.9 7.6 37.1c0 13-2.5 25.2-7.6 36.7-5 11.5-11.9 21.6-20.5 30.2-8.6 8.6-18.8 15.5-30.4 20.5-11.7 5.1-24 7.6-36.9 7.6zm0-156.6c-8.6 0-16.8 1.6-24.5 4.9-7.7 3.2-14.3 7.6-20 13.1-5.6 5.5-10.1 12-13.5 19.4-3.4 7.4-5 15.5-5 24.1s1.7 16.7 5 24.1c3.4 7.4 7.9 14 13.5 19.6 5.6 5.6 12.3 10.1 20 13.3 7.7 3.2 15.8 4.9 24.5 4.9 8.6 0 16.7-1.6 24.3-4.9 7.6-3.2 14.2-7.7 19.8-13.3 5.6-5.6 10.1-12.2 13.3-19.6 3.2-7.4 4.9-15.5 4.9-24.1s-1.6-16.7-4.9-24.1c-3.2-7.4-7.7-13.9-13.3-19.4-5.6-5.5-12.2-9.9-19.8-13.1-7.6-3.3-15.7-4.9-24.3-4.9zm0 0c-8.6 0-16.8 1.6-24.5 4.9-7.7 3.2-14.3 7.6-20 13.1-5.6 5.5-10.1 12-13.5 19.4-3.4 7.4-5 15.5-5 24.1s1.7 16.7 5 24.1c3.4 7.4 7.9 14 13.5 19.6 5.6 5.6 12.3 10.1 20 13.3 7.7 3.2 15.8 4.9 24.5 4.9 8.6 0 16.7-1.6 24.3-4.9 7.6-3.2 14.2-7.7 19.8-13.3 5.6-5.6 10.1-12.2 13.3-19.6 3.2-7.4 4.9-15.5 4.9-24.1s-1.6-16.7-4.9-24.1c-3.2-7.4-7.7-13.9-13.3-19.4-5.6-5.5-12.2-9.9-19.8-13.1-7.6-3.3-15.7-4.9-24.3-4.9z" fill="#454849"/><path d="M731.4 466.3c-16.3 0-31.6-3.1-45.9-9.2-14.3-6.1-26.7-14.5-37.3-25.2-10.6-10.7-19-23.1-25.2-37.3-6.2-14.2-9.4-29.4-9.4-45.7 0-16.1 3.1-31.2 9.4-45.4 6.2-14.2 14.6-26.6 25.2-37.3 10.6-10.7 23-19.1 37.3-25.2 14.3-6.1 29.6-9.2 45.9-9.2 16.3 0 31.7 3.1 46.1 9.2 14.4 6.1 26.9 14.5 37.6 25.2 10.7 10.7 19.1 23.1 25.4 37.3 6.2 14.2 9.4 29.3 9.4 45.4 0 16.3-3.1 31.6-9.4 45.7-6.2 14.2-14.7 26.6-25.4 37.3-10.7 10.7-23.2 19.1-37.6 25.2-14.5 6.1-29.8 9.2-46.1 9.2zm.1-203c-12 0-23.2 2.3-33.6 6.8-10.4 4.6-19.5 10.7-27.3 18.4-7.8 7.7-14 16.7-18.5 27.2-4.5 10.4-6.8 21.5-6.8 33.3 0 12 2.3 23.2 6.8 33.7 4.6 10.4 10.7 19.5 18.5 27.2 7.8 7.7 16.9 13.8 27.3 18.4 10.4 4.6 21.6 6.8 33.6 6.8 12.2 0 23.6-2.3 34.1-6.8 10.5-4.6 19.7-10.7 27.5-18.4 7.8-7.7 13.9-16.7 18.3-27.2 4.4-10.4 6.6-21.7 6.6-33.7 0-11.8-2.2-22.9-6.6-33.3-4.4-10.4-10.5-19.5-18.3-27.2-7.8-7.7-16.9-13.8-27.5-18.4-10.5-4.6-21.8-6.8-34.1-6.8zM950.6 278c13.9 0 26.5 2.3 37.8 7 11.3 4.7 20.9 11.2 28.8 19.6 7.9 8.4 14 18.3 18.2 29.7 4.2 11.4 6.3 23.9 6.3 37.6 0 11.5-2 22.9-5.9 34.2-4 11.3-9.8 21.4-17.5 30.2-7.7 8.9-17.1 16.1-28.3 21.6s-24.1 8.3-38.7 8.3c-6 0-12.4-.3-19.3-.9-6.8-.6-12.3-1.4-16.4-2.3v61.6h-33.5V296c5.5-3.4 11.3-6.2 17.5-8.5 6.1-2.3 12.2-4.1 18.2-5.6 6-1.4 11.8-2.5 17.5-3.1 5.6-.5 10.7-.8 15.3-.8zm60.1 88.6c0-9.6-2-17.9-5.9-25-4-7.1-9.1-12.8-15.3-17.3-6.2-4.4-13.4-7.7-21.4-9.9-8-2.2-16.1-3.2-24.3-3.2-9.1 0-18.5 1.7-28.1 5v113c4.1 1 8.8 1.6 14 2 5.3.4 10 .5 14 .5 10.3 0 19.6-1.3 27.9-3.8 8.3-2.5 15.3-6.4 21.1-11.7 5.8-5.3 10.2-12 13.3-20.2 3.2-8.1 4.7-17.9 4.7-29.4zm220.7 21.9v26.8c0 8.8-.1 16.6-.2 23.4-.1 6.8-.2 12.4-.2 16.6v6.7h-33.1v-18.8c-7 8.5-15.4 14.6-25.2 18.2-9.8 3.6-19.9 5.3-30.2 5.3-8.4 0-16.8-1.3-25.2-3.8-8.4-2.5-16-6.3-22.7-11.3-6.7-5-12.1-11.3-16.2-18.9-4.1-7.6-6.1-16.4-6.1-26.5 0-10.3 1.7-19.2 5.2-26.6 3.5-7.4 8.3-13.5 14.4-18.2 6.1-4.7 13.3-8.1 21.6-10.3 8.3-2.2 17.3-3.2 27.2-3.2 8.6 0 17.8.7 27.5 2.2 9.7 1.4 19.6 3.7 29.7 6.8v-1.4c.5-1.9.7-3.6.7-5v-4.7c0-6.5-1.3-12.1-3.8-16.9-2.5-4.8-5.8-8.8-9.9-11.9-4.1-3.1-8.7-5.5-13.9-7-5.2-1.6-10.5-2.3-16-2.3-5.3 0-10.4.6-15.5 1.8-5 1.2-9.6 3.1-13.7 5.8-4.1 2.6-7.4 5.9-10.1 9.9-2.6 4-4.1 8.7-4.3 14.2h-33.1c.7-10.6 3.3-19.8 7.7-27.7 4.4-7.9 10.1-14.5 16.9-19.6 6.8-5.2 14.6-9.1 23.2-11.7 8.6-2.6 17.5-4 26.6-4 10.6 0 20.5 1.4 29.9 4.3s17.6 7.4 24.7 13.7c7.1 6.2 12.7 14.2 16.9 23.9 4.2 9.7 6.4 21.5 6.7 35.5v1.8c3.6-.5 7.3-1.1 11-1.8s7.6-1.6 11.7-2.5v33.8l-22.2 3.4zm-33.1.8c-1.4 0-4-.5-7.7-1.5s-8-2-13-3.1c-4.9-1.1-10.2-2.1-15.8-3.1-5.6-1-11.1-1.5-16.4-1.5-4.1 0-8.5.4-13.1 1.3s-9 2.4-13 4.5c-4 2.2-7.3 5-9.9 8.3-2.6 3.4-4 7.6-4 12.7 0 4.1 1.1 7.9 3.4 11.2 2.3 3.4 5.3 6.3 9.2 8.9 3.8 2.5 8.3 4.5 13.3 6s10.4 2.2 16.2 2.2c6.7 0 13.1-1.1 19.1-3.4 6-2.3 11.3-5.1 16-8.5 4.7-3.4 8.4-7 11.2-10.9 2.8-3.9 4.3-7.4 4.5-10.5v-12.6zm235.1-107.7v181.1h-33.1V386h-92.5v76.7H1275V281.6h32.8v70.9h92.5v-70.9h33.1zm247.3 60.9c-2.6 4.6-6.7 9.2-12.1 13.9-5.4 4.7-10.5 9.1-15.3 13.1 4.8 4.3 9.9 9 15.3 14s9.4 10 12.1 14.8c2.9 4.8 5.6 9.2 8.3 13.3 2.6 4.1 5.8 7.6 9.4 10.6 3.6 3 7.8 5.3 12.6 7 4.8 1.7 10.8 2.5 18 2.5v32.4c-12 0-22.1-1.6-30.4-4.7-8.3-3.1-15.3-7.1-21.1-12.1-5.8-4.9-10.6-10.3-14.4-16-3.8-5.8-7.3-11.3-10.4-16.6-2.6-4.6-5-8.6-7.2-12.2-2.2-3.6-4.5-6.7-7-9.4-2.5-2.6-5.3-4.7-8.5-6.1-3.1-1.4-6.8-2.4-11.2-2.9V462h-31.7v-77.8c-4.3.2-8 1.1-11.2 2.7-3.1 1.6-5.9 3.6-8.5 6.1-2.5 2.5-5 5.6-7.4 9.4-2.4 3.7-4.9 7.9-7.6 12.4-2.9 5.3-6.2 10.8-10.1 16.6-3.8 5.8-8.6 11.1-14.4 16-5.8 4.9-12.8 8.9-21.2 12.1-8.4 3.1-18.5 4.7-30.2 4.7v-32.4c7.2 0 13.2-.8 18-2.5 4.8-1.7 9-4 12.6-7 3.6-3 6.7-6.5 9.4-10.6 2.6-4.1 5.4-8.5 8.3-13.3 2.6-4.8 6.7-9.7 12.2-14.8 5.5-5 10.7-9.7 15.5-14-4.6-4.1-9.5-8.5-14.9-13.3-5.4-4.8-9.4-9.5-12.1-14-2.9-4.6-5.6-8.8-8.3-12.8-2.6-4-5.7-7.3-9.2-10.1-3.5-2.8-7.7-4.9-12.6-6.5-4.9-1.6-11-2.3-18.2-2.3V278c11.8 0 21.7 1.5 29.9 4.5s15.1 6.8 20.9 11.5c5.8 4.7 10.6 9.8 14.6 15.3s7.4 10.8 10.3 15.8c2.6 4.3 5.1 8.2 7.4 11.7 2.3 3.5 4.7 6.4 7.2 8.8 2.5 2.4 5.3 4.4 8.5 5.9 3.1 1.6 6.8 2.5 11.2 2.7v-70.9h31.7v70.9c8.9-1 15.5-3.8 19.8-8.6 4.3-4.8 8.8-10.9 13.3-18.4l1.1-1.8c3.1-5 6.6-10.3 10.4-15.7 3.8-5.4 8.6-10.4 14.4-15.1s12.8-8.5 21.1-11.5 18.3-4.5 30.1-4.5V311c-7.2 0-13.3.8-18.2 2.3-4.9 1.6-9.1 3.7-12.6 6.5s-6.5 6.1-9.2 9.9c-2.8 4-5.5 8.2-8.4 12.8zm236.1 101.1c-8.4 6-18.2 11.3-29.5 16-11.3 4.7-24.1 7-38.5 7-11.8 0-22.6-1.7-32.6-5.2s-18.6-8.5-25.9-14.9c-7.3-6.5-13.2-14.5-17.6-24.1-4.4-9.6-6.9-20.5-7.4-32.8v-1.8c-3.8.5-7.7.8-11.7.9-4 .1-7.9.9-11.7 2.3v-32.8c4.1-1.2 8-1.9 11.9-2.2 3.8-.2 7.8-.6 11.9-1.1.7-11.5 3.4-22.1 7.9-31.7 4.6-9.6 10.7-17.9 18.4-24.8 7.7-7 16.8-12.4 27.4-16.2 10.6-3.8 22.2-5.8 34.9-5.8 13.7 0 26 3 37.1 9 8.4 4.8 15.4 11.4 20.9 19.8 5.5 8.4 8.3 17.9 8.3 28.4 0 11-3.7 21.4-11.2 31-7.7 10.1-16.9 16.6-27.5 19.6-10.7 3-22.3 4.5-34.7 4.5-5.5 0-11.9-.2-19.3-.7-7.3-.5-14-.7-20-.7-1.7 0-3.2.1-4.7.2-1.4.1-2.8.3-4 .5v1.8c0 14.2 4.7 24.9 14.2 32.2 9.5 7.3 21.3 11 35.5 11 7.2 0 13.9-.6 20-1.8 6.1-1.2 11.9-2.9 17.3-5s10.6-4.7 15.7-7.6c5-2.9 10.1-6 15.1-9.4v34.4zm-58.3-135.7c-7.4 0-14.6 1-21.4 2.9-6.8 1.9-13 4.8-18.4 8.6-5.4 3.8-9.8 8.7-13.3 14.6s-5.6 12.9-6.3 21.1l19.4-.7c4.1.5 9.1.8 14.9.9 5.9.1 11.6.2 17.1.2 4.8 0 9.6-.3 14.4-.9 4.8-.6 9.1-1.8 12.8-3.6 3.7-1.8 6.7-4.3 9-7.4 2.3-3.1 3.4-7.1 3.4-11.9 0-8.6-3.2-14.8-9.7-18.4s-13.7-5.4-21.9-5.4zm225.4 54.7c5 1.7 9.7 3.7 13.9 5.9 4.2 2.3 7.8 5.1 10.8 8.5 3 3.4 5.3 7.4 7 12.2 1.7 4.8 2.5 10.4 2.5 16.9 0 11.3-2.5 20.8-7.4 28.4-4.9 7.7-11.3 13.9-19 18.5-7.8 4.7-16.6 8-26.4 10.1-9.8 2-19.8 3.1-29.8 3.1-8.1 0-16-.5-23.7-1.4-7.7-1-14.7-2.1-21-3.4-6.3-1.3-11.8-2.7-16.3-4.1-4.5-1.4-7.8-2.5-9.7-3.2V317.6h-16.9v-32.8h3.2c6.5 0 12.8-.4 19.1-1.3 6.2-.8 12.5-1.7 18.7-2.5 6.2-.8 12.7-1.7 19.3-2.5 6.6-.8 13.4-1.3 20.3-1.3 8.4 0 16.8.8 25.2 2.3 8.4 1.6 15.9 4.4 22.5 8.5s11.9 9.6 16 16.6c4.1 7 6.1 15.8 6.1 26.6 0 4.6-.5 8.5-1.6 11.7s-2.3 6.1-3.8 8.5c-1.4 2.4-3 4.5-4.7 6.3-1.7 1.9-3.1 3.5-4.3 4.9zm-48.3 72.4c4.3 0 9.5-.3 15.5-.9 6-.6 11.6-1.9 16.9-4 5.3-2 9.8-5 13.5-8.8 3.7-3.8 5.6-9 5.6-15.5 0-5-1.5-9.1-4.5-12.1s-6.7-5.3-11.2-6.8c-4.4-1.6-9.2-2.6-14.2-3.2-5-.6-9.5-1-13.3-1.3-1 .2-4.7.4-11.2.4v-33.5h12.2c2.6-.2 5.4-.6 8.3-1.1 2.9-.5 5.5-1.4 7.7-2.7 2.3-1.3 4.1-3.2 5.6-5.8 1.4-2.5 2.2-5.8 2.2-9.9 0-4.6-1.1-8.2-3.4-11-2.3-2.8-5.3-4.9-9-6.3-3.7-1.4-7.9-2.3-12.4-2.7-4.6-.4-9-.5-13.3-.5-4.3 0-9.4.4-15.1 1.1-5.8.7-12.1 1.4-19.1 2.2V430c6.2 1 12.8 2 19.6 3.2 6.9 1.2 13.4 1.8 19.6 1.8zm178.2-104.8c9.4 0 18.6 1.4 27.7 4.1 9.1 2.8 17.2 6.8 24.1 12.2 7 5.4 12.6 12.3 16.9 20.7 4.3 8.4 6.5 18.1 6.5 29.2 0 12-2 22.4-6.1 31.1-4.1 8.8-9.7 16-16.9 21.8s-15.8 10-25.7 12.8c-10 2.8-20.8 4.1-32.6 4.1-9.1 0-19.1-.7-29.9-2-10.8-1.3-22.4-3.5-34.9-6.7v-176h33.5V336c12.5-3.9 25-5.8 37.4-5.8zm-5.7 102.6c6 0 11.9-.5 17.6-1.6 5.8-1.1 10.9-3 15.3-5.8s8-6.5 10.6-11.2c2.6-4.7 4-10.6 4-17.8 0-5.8-1.1-10.7-3.4-14.9-2.3-4.2-5.4-7.6-9.4-10.3-4-2.6-8.5-4.6-13.7-5.8-5.2-1.2-10.6-1.8-16.4-1.8-11 0-23.2 2.6-36.4 7.9v58.3c6.2 1.2 12 2 17.3 2.3 5.4.5 10.2.7 14.5.7zm150.5-150.5v180.4h-33.5V282.3h33.5zm205.5 0v180h-32.4v-126l-96.1 126.4h-30.2V282.3h32.4v126l96.1-126h30.2zm-36-25.9c-3.4-1.2-6.5-2-9.5-2.5s-5.8-.7-8.5-.7c-3.4 0-6.5.2-9.4.7-2.9.5-6.4 1.1-10.4 1.8-3.8 1-7.7 1.8-11.5 2.5s-7.8 1.1-11.9 1.1c-6.5 0-13.2-1.2-20.2-3.6v-30.6c3.6 2.2 7 3.7 10.3 4.5 3.2.8 6.5 1.3 9.9 1.3 2.9 0 5.9-.3 9-.9 3.1-.6 6.4-1.3 9.7-2 3.6-1.2 7.4-2.1 11.3-2.7 4-.6 8.1-.9 12.4-.9 3.1 0 6.2.2 9.2.5 3 .4 6.2 1.1 9.5 2.3v29.2zm-2105 48.5c0-84.2-68.2-152.4-152.3-152.4-38.7 0-73.8 14.5-100.7 38.3-4.3 3.8-8.3 7.8-12.2 12.1-73.3 67.8-46.6 169.1-82.6 205-43.8 43.6-38.8 111.8 34.4 123.8C273 558.6 370.3 420.5 370.3 420.5c24.9-27.2 52.8-75.9 52.8-115.6" fill="#FF772B"/><path fill="#AF4B19" d="M410.4 244.1c0 .5.1 1 .1 1.5 0 46.3-32.6 103.1-61.6 134.7 0 0-104.9 148.8-282.2 132.5 10.1 9 24.3 15.8 43 18.9C273 558.6 370.2 420.4 370.2 420.4c24.9-27.1 52.8-75.8 52.8-115.5.1-21.6-4.5-42.1-12.6-60.8"/><path fill="#454849" d="M270.7 165.1c-34 0-66.8 12.5-92.4 35.1-3.9 3.4-7.6 7.1-11.2 11.1-40.8 37.8-48.7 85.8-55.6 128.2-5.2 32-9.8 59.7-27.4 77.3-20 19.9-28.6 46.2-22 67 5.9 18.6 23.5 31.2 49.6 35.5C265.5 544.6 359 414.5 359.9 413.2c.3-.4.6-.9 1-1.3 24.6-26.8 49.5-72.2 49.5-107 .1-77.1-62.6-139.8-139.7-139.8M152.2 547.8c-14.3 0-29.1-1.2-44.6-3.7-35.8-5.9-60.5-24.6-69.5-52.6-9.7-30.2 1.2-65.6 28.2-92.6 11.9-11.8 15.8-35.8 20.3-63.5 7.2-44 16.2-98.9 62.6-141.8 3.4-3.8 7.8-8.2 12.4-12.3 30.2-26.7 69-41.4 109.1-41.4 90.9 0 164.9 74 164.9 165 0 42.9-28.7 93.9-55.6 123.5-7.8 10.9-89.8 119.4-227.8 119.4"/><path fill="#454849" d="M339.6 178.7c-3.5 0-7-1.4-9.4-4.3-4.6-5.2-4.1-13.2 1.1-17.8 40.3-35.6 46.4-104.1 46.4-104.8.6-6.9 6.8-12.1 13.6-11.5 6.9.6 12.1 6.6 11.5 13.6-.3 3.2-6.9 79.3-54.9 121.7-2.4 2.1-5.3 3.1-8.3 3.1"/><path fill="#3BB777" d="M531.2 150.3c-118-112.5-166.9 4-166.9 4s54.5 114 166.9-4"/><path fill="#229857" d="M531.2 150.3l-166.9 4s54.5 114 166.9-4"/><path fill="#454849" d="M378.6 153.9c6.3 10.2 22.9 32.5 49 36.6 25.2 4 53.9-9.4 85.4-39.8-33-28.9-62.4-40.9-87.4-35.6-26 5.4-41.3 28.3-47 38.8m57.8 62.5c-4.3 0-8.6-.3-12.9-1-47-7.5-69.6-53.7-70.5-55.7-1.5-3.2-1.6-7-.3-10.3.8-2 21.2-49.3 67.8-59 36-7.6 76.2 9.5 119.4 50.7 2.4 2.3 3.8 5.5 3.9 8.8.1 3.3-1.2 6.6-3.5 9-36.3 38.2-71.2 57.5-103.9 57.5"/><path fill="#FEFEFE" d="M144.2 327.9c-.5 0-.9 0-1.4-.1-5.2-.8-8.7-5.6-8-10.7.4-2.6 9.7-63.4 45-91.1 4.1-3.2 10-2.5 13.3 1.6 3.2 4.1 2.5 10-1.6 13.3-29.4 23.1-37.9 78.4-37.9 79-.7 4.6-4.8 8-9.4 8m78.6-124.2c5.2 4.4 5.9 12.2 1.4 17.4-4.4 5.2-12.2 5.9-17.4 1.4-5.2-4.4-5.9-12.2-1.4-17.4 4.4-5.2 12.2-5.8 17.4-1.4"/><path fill="#3BB777" d="M3665.3 239.9c-73.4 5-49.5 56.8-49.5 56.8s54.5 16.6 49.5-56.8"/><path fill="#229857" d="M3665.3 239.9l-49.5 56.8s54.5 16.6 49.5-56.8"/><path fill="#454849" d="M3620 291.8c5.3 1 17.8 2.3 27.1-5.2 9-7.2 13.3-20.8 12.8-40.6-19.7 2.2-32.6 8.3-38.5 18.2-6.1 10.4-3.1 22.5-1.4 27.6m38.4-.2c-1.3 1.4-2.7 2.8-4.3 4-16.8 13.4-39.1 6.8-40 6.5-1.6-.5-2.8-1.6-3.5-3.1-.4-.9-10-22.1 1-40.5 8.5-14.3 26.4-22.5 53.3-24.3 1.5-.1 3 .4 4.1 1.4 1.1 1 1.8 2.4 1.9 3.9 1.7 23.7-2.5 41.2-12.5 52.1"/></svg>