<?xml version="1.0" encoding="utf-8"?>
<!-- Generator: Adobe Illustrator 22.0.0, SVG Export Plug-In . SVG Version: 6.00 Build 0)  -->
<svg version="1.1" id="Capa_1" xmlns="http://www.w3.org/2000/svg" xmlns:xlink="http://www.w3.org/1999/xlink" x="0px" y="0px"
	 viewBox="0 0 3774.9 604.2" enable-background="new 0 0 3774.9 604.2" xml:space="preserve">
<path fill="none" stroke="#FF772B" stroke-width="33" stroke-miterlimit="10" d="M696,243.6c0,0-34-38.5-38.2-55"/>
<g>
	<path fill="#454849" d="M2937.4,236.3V462h-31V272.3c-4.6,4.1-8.8,9.3-12.6,15.7c-3.8,6.4-7.7,13-11.5,20
		c-4.3,8.4-8.6,16.7-12.8,25c-4.2,8.3-8.9,15.7-14,22.1c-5.2,6.5-11,11.7-17.6,15.7c-6.6,4-14.6,5.9-23.9,5.9
		c-9.4,0-17.3-1.9-23.8-5.8c-6.5-3.8-12.2-8.9-17.1-15.3c-4.9-6.4-9.3-13.5-13.1-21.4c-3.8-7.9-7.8-16-11.9-24.1
		c-4.1-7.7-8.1-14.8-12.1-21.4c-4-6.6-8.3-12.1-13.1-16.4V462h-31V236.3h30.2c7,2.4,13.1,5.8,18.5,10.3c5.4,4.4,10.3,9.5,14.6,15.1
		c4.3,5.6,8.2,11.6,11.7,18c3.5,6.4,6.9,12.7,10.3,18.9c3.6,7.2,6.7,13.7,9.4,19.6c2.6,5.9,5.3,10.8,7.9,14.8c2.6,4,5.5,7,8.5,9.2
		c3,2.2,6.7,3.2,11,3.2c4.6,0,8.4-1.1,11.5-3.2c3.1-2.2,6.1-5.2,8.8-9.2c2.8-4,5.5-8.9,8.3-14.8c2.8-5.9,5.9-12.4,9.5-19.6
		c3.1-6.2,6.5-12.5,10.1-18.9c3.6-6.4,7.6-12.4,11.9-18c4.3-5.6,9.2-10.7,14.6-15.1c5.4-4.4,11.6-7.9,18.5-10.3H2937.4z"/>
	<path fill="#454849" d="M3130.7,388.5c0,9.1,0,18.1,0,26.8c0,8.8-0.1,16.6-0.2,23.4c-0.1,6.8-0.2,12.4-0.2,16.6c0,4.2,0,6.4,0,6.7
		h-33.1v-18.8c-7,8.5-15.4,14.6-25.2,18.2c-9.8,3.6-19.9,5.3-30.2,5.3c-8.4,0-16.8-1.3-25.2-3.8c-8.4-2.5-16-6.3-22.7-11.3
		c-6.7-5-12.1-11.3-16.2-18.9c-4.1-7.6-6.1-16.4-6.1-26.5c0-10.3,1.7-19.2,5.2-26.6c3.5-7.4,8.3-13.5,14.4-18.2
		c6.1-4.7,13.3-8.1,21.6-10.3c8.3-2.2,17.3-3.2,27.2-3.2c8.6,0,17.8,0.7,27.5,2.2c9.7,1.4,19.6,3.7,29.7,6.8v-1.4
		c0.5-1.9,0.7-3.6,0.7-5s0-3,0-4.7c0-6.5-1.3-12.1-3.8-16.9c-2.5-4.8-5.8-8.8-9.9-11.9c-4.1-3.1-8.7-5.5-13.9-7
		c-5.2-1.6-10.5-2.3-16-2.3c-5.3,0-10.4,0.6-15.5,1.8c-5,1.2-9.6,3.1-13.7,5.8c-4.1,2.6-7.4,5.9-10.1,9.9c-2.6,4-4.1,8.7-4.3,14.2
		h-33.1c0.7-10.6,3.3-19.8,7.7-27.7c4.4-7.9,10.1-14.5,16.9-19.6c6.8-5.2,14.6-9.1,23.2-11.7c8.6-2.6,17.5-4,26.6-4
		c10.6,0,20.5,1.4,29.9,4.3s17.6,7.4,24.7,13.7c7.1,6.2,12.7,14.2,16.9,23.9c4.2,9.7,6.4,21.5,6.7,35.5v1.8c3.6-0.5,7.3-1.1,11-1.8
		c3.7-0.7,7.6-1.6,11.7-2.5v33.8L3130.7,388.5z M3097.6,389.3c-1.4,0-4-0.5-7.7-1.5c-3.7-1-8-2-13-3.1c-4.9-1.1-10.2-2.1-15.8-3.1
		c-5.6-1-11.1-1.5-16.4-1.5c-4.1,0-8.5,0.4-13.1,1.3s-9,2.4-13,4.5c-4,2.2-7.3,5-9.9,8.3c-2.6,3.4-4,7.6-4,12.7
		c0,4.1,1.1,7.9,3.4,11.2c2.3,3.4,5.3,6.3,9.2,8.9c3.8,2.5,8.3,4.5,13.3,6s10.4,2.2,16.2,2.2c6.7,0,13.1-1.1,19.1-3.4
		c6-2.3,11.3-5.1,16-8.5c4.7-3.4,8.4-7,11.2-10.9c2.8-3.9,4.3-7.4,4.5-10.5V389.3z"/>
	<path fill="#454849" d="M3332.7,281.6v181.1h-33.1V386H3207v76.7h-32.8V281.6h32.8v70.9h92.5v-70.9H3332.7z"/>
	<path fill="#454849" d="M3516.6,314.4h-100.8V462h-32.8V282h133.6V314.4z"/>
	<path fill="#454849" d="M3616,466.3c-13.2,0-25.6-2.5-37.3-7.6c-11.6-5-21.8-11.9-30.6-20.5c-8.8-8.6-15.7-18.7-20.7-30.2
		c-5-11.5-7.6-23.8-7.6-36.7c0-13.2,2.5-25.6,7.6-37.1c5-11.5,11.9-21.6,20.7-30.2c8.8-8.6,19-15.5,30.6-20.5
		c11.6-5,24.1-7.6,37.3-7.6c13,0,25.3,2.5,36.9,7.6c11.6,5,21.8,11.9,30.4,20.5c8.6,8.6,15.5,18.7,20.5,30.2
		c5,11.5,7.6,23.9,7.6,37.1c0,13-2.5,25.2-7.6,36.7c-5,11.5-11.9,21.6-20.5,30.2c-8.6,8.6-18.8,15.5-30.4,20.5
		C3641.2,463.8,3628.9,466.3,3616,466.3z M3616,466.3c-13.2,0-25.6-2.5-37.3-7.6c-11.6-5-21.8-11.9-30.6-20.5
		c-8.8-8.6-15.7-18.7-20.7-30.2c-5-11.5-7.6-23.8-7.6-36.7c0-13.2,2.5-25.6,7.6-37.1c5-11.5,11.9-21.6,20.7-30.2
		c8.8-8.6,19-15.5,30.6-20.5c11.6-5,24.1-7.6,37.3-7.6c13,0,25.3,2.5,36.9,7.6c11.6,5,21.8,11.9,30.4,20.5
		c8.6,8.6,15.5,18.7,20.5,30.2c5,11.5,7.6,23.9,7.6,37.1c0,13-2.5,25.2-7.6,36.7c-5,11.5-11.9,21.6-20.5,30.2
		c-8.6,8.6-18.8,15.5-30.4,20.5C3641.2,463.8,3628.9,466.3,3616,466.3z M3616,309.7c-8.6,0-16.8,1.6-24.5,4.9
		c-7.7,3.2-14.3,7.6-20,13.1c-5.6,5.5-10.1,12-13.5,19.4c-3.4,7.4-5,15.5-5,24.1s1.7,16.7,5,24.1c3.4,7.4,7.9,14,13.5,19.6
		c5.6,5.6,12.3,10.1,20,13.3c7.7,3.2,15.8,4.9,24.5,4.9c8.6,0,16.7-1.6,24.3-4.9c7.6-3.2,14.2-7.7,19.8-13.3
		c5.6-5.6,10.1-12.2,13.3-19.6c3.2-7.4,4.9-15.5,4.9-24.1s-1.6-16.7-4.9-24.1c-3.2-7.4-7.7-13.9-13.3-19.4
		c-5.6-5.5-12.2-9.9-19.8-13.1C3632.7,311.3,3624.6,309.7,3616,309.7z M3616,309.7c-8.6,0-16.8,1.6-24.5,4.9
		c-7.7,3.2-14.3,7.6-20,13.1c-5.6,5.5-10.1,12-13.5,19.4c-3.4,7.4-5,15.5-5,24.1s1.7,16.7,5,24.1c3.4,7.4,7.9,14,13.5,19.6
		c5.6,5.6,12.3,10.1,20,13.3c7.7,3.2,15.8,4.9,24.5,4.9c8.6,0,16.7-1.6,24.3-4.9c7.6-3.2,14.2-7.7,19.8-13.3
		c5.6-5.6,10.1-12.2,13.3-19.6c3.2-7.4,4.9-15.5,4.9-24.1s-1.6-16.7-4.9-24.1c-3.2-7.4-7.7-13.9-13.3-19.4
		c-5.6-5.5-12.2-9.9-19.8-13.1C3632.7,311.3,3624.6,309.7,3616,309.7z"/>
</g>
<g>
	<path fill="#FF772B" d="M731.4,466.3c-16.3,0-31.6-3.1-45.9-9.2c-14.3-6.1-26.7-14.5-37.3-25.2c-10.6-10.7-19-23.1-25.2-37.3
		c-6.2-14.2-9.4-29.4-9.4-45.7c0-16.1,3.1-31.2,9.4-45.4c6.2-14.2,14.6-26.6,25.2-37.3c10.6-10.7,23-19.1,37.3-25.2
		c14.3-6.1,29.6-9.2,45.9-9.2c16.3,0,31.7,3.1,46.1,9.2c14.4,6.1,26.9,14.5,37.6,25.2c10.7,10.7,19.1,23.1,25.4,37.3
		c6.2,14.2,9.4,29.3,9.4,45.4c0,16.3-3.1,31.6-9.4,45.7c-6.2,14.2-14.7,26.6-25.4,37.3c-10.7,10.7-23.2,19.1-37.6,25.2
		C763,463.2,747.7,466.3,731.4,466.3z M731.5,263.3c-12,0-23.2,2.3-33.6,6.8c-10.4,4.6-19.5,10.7-27.3,18.4
		c-7.8,7.7-14,16.7-18.5,27.2c-4.5,10.4-6.8,21.5-6.8,33.3c0,12,2.3,23.2,6.8,33.7c4.6,10.4,10.7,19.5,18.5,27.2
		c7.8,7.7,16.9,13.8,27.3,18.4c10.4,4.6,21.6,6.8,33.6,6.8c12.2,0,23.6-2.3,34.1-6.8c10.5-4.6,19.7-10.7,27.5-18.4
		c7.8-7.7,13.9-16.7,18.3-27.2c4.4-10.4,6.6-21.7,6.6-33.7c0-11.8-2.2-22.9-6.6-33.3c-4.4-10.4-10.5-19.5-18.3-27.2
		c-7.8-7.7-16.9-13.8-27.5-18.4C755.1,265.5,743.8,263.3,731.5,263.3z"/>
	<path fill="#FF772B" d="M950.6,278c13.9,0,26.5,2.3,37.8,7c11.3,4.7,20.9,11.2,28.8,19.6c7.9,8.4,14,18.3,18.2,29.7
		c4.2,11.4,6.3,23.9,6.3,37.6c0,11.5-2,22.9-5.9,34.2c-4,11.3-9.8,21.4-17.5,30.2c-7.7,8.9-17.1,16.1-28.3,21.6
		c-11.2,5.5-24.1,8.3-38.7,8.3c-6,0-12.4-0.3-19.3-0.9c-6.8-0.6-12.3-1.4-16.4-2.3v61.6h-33.5V296c5.5-3.4,11.3-6.2,17.5-8.5
		c6.1-2.3,12.2-4.1,18.2-5.6c6-1.4,11.8-2.5,17.5-3.1C940.9,278.3,946,278,950.6,278z M1010.7,366.6c0-9.6-2-17.9-5.9-25
		c-4-7.1-9.1-12.8-15.3-17.3c-6.2-4.4-13.4-7.7-21.4-9.9c-8-2.2-16.1-3.2-24.3-3.2c-9.1,0-18.5,1.7-28.1,5v113c4.1,1,8.8,1.6,14,2
		c5.3,0.4,10,0.5,14,0.5c10.3,0,19.6-1.3,27.9-3.8c8.3-2.5,15.3-6.4,21.1-11.7c5.8-5.3,10.2-12,13.3-20.2
		C1009.2,387.9,1010.7,378.1,1010.7,366.6z"/>
	<path fill="#FF772B" d="M1231.4,388.5c0,9.1,0,18.1,0,26.8c0,8.8-0.1,16.6-0.2,23.4c-0.1,6.8-0.2,12.4-0.2,16.6c0,4.2,0,6.4,0,6.7
		h-33.1v-18.8c-7,8.5-15.4,14.6-25.2,18.2c-9.8,3.6-19.9,5.3-30.2,5.3c-8.4,0-16.8-1.3-25.2-3.8c-8.4-2.5-16-6.3-22.7-11.3
		c-6.7-5-12.1-11.3-16.2-18.9c-4.1-7.6-6.1-16.4-6.1-26.5c0-10.3,1.7-19.2,5.2-26.6c3.5-7.4,8.3-13.5,14.4-18.2
		c6.1-4.7,13.3-8.1,21.6-10.3c8.3-2.2,17.3-3.2,27.2-3.2c8.6,0,17.8,0.7,27.5,2.2c9.7,1.4,19.6,3.7,29.7,6.8v-1.4
		c0.5-1.9,0.7-3.6,0.7-5s0-3,0-4.7c0-6.5-1.3-12.1-3.8-16.9c-2.5-4.8-5.8-8.8-9.9-11.9c-4.1-3.1-8.7-5.5-13.9-7
		c-5.2-1.6-10.5-2.3-16-2.3c-5.3,0-10.4,0.6-15.5,1.8c-5,1.2-9.6,3.1-13.7,5.8c-4.1,2.6-7.4,5.9-10.1,9.9c-2.6,4-4.1,8.7-4.3,14.2
		h-33.1c0.7-10.6,3.3-19.8,7.7-27.7c4.4-7.9,10.1-14.5,16.9-19.6c6.8-5.2,14.6-9.1,23.2-11.7c8.6-2.6,17.5-4,26.6-4
		c10.6,0,20.5,1.4,29.9,4.3s17.6,7.4,24.7,13.7c7.1,6.2,12.7,14.2,16.9,23.9c4.2,9.7,6.4,21.5,6.7,35.5v1.8c3.6-0.5,7.3-1.1,11-1.8
		c3.7-0.7,7.6-1.6,11.7-2.5v33.8L1231.4,388.5z M1198.3,389.3c-1.4,0-4-0.5-7.7-1.5c-3.7-1-8-2-13-3.1c-4.9-1.1-10.2-2.1-15.8-3.1
		c-5.6-1-11.1-1.5-16.4-1.5c-4.1,0-8.5,0.4-13.1,1.3s-9,2.4-13,4.5c-4,2.2-7.3,5-9.9,8.3c-2.6,3.4-4,7.6-4,12.7
		c0,4.1,1.1,7.9,3.4,11.2c2.3,3.4,5.3,6.3,9.2,8.9c3.8,2.5,8.3,4.5,13.3,6s10.4,2.2,16.2,2.2c6.7,0,13.1-1.1,19.1-3.4
		c6-2.3,11.3-5.1,16-8.5c4.7-3.4,8.4-7,11.2-10.9c2.8-3.9,4.3-7.4,4.5-10.5V389.3z"/>
	<path fill="#FF772B" d="M1433.4,281.6v181.1h-33.1V386h-92.5v76.7H1275V281.6h32.8v70.9h92.5v-70.9H1433.4z"/>
	<path fill="#FF772B" d="M1680.7,342.5c-2.6,4.6-6.7,9.2-12.1,13.9c-5.4,4.7-10.5,9.1-15.3,13.1c4.8,4.3,9.9,9,15.3,14
		c5.4,5,9.4,10,12.1,14.8c2.9,4.8,5.6,9.2,8.3,13.3c2.6,4.1,5.8,7.6,9.4,10.6c3.6,3,7.8,5.3,12.6,7c4.8,1.7,10.8,2.5,18,2.5v32.4
		c-12,0-22.1-1.6-30.4-4.7c-8.3-3.1-15.3-7.1-21.1-12.1c-5.8-4.9-10.6-10.3-14.4-16c-3.8-5.8-7.3-11.3-10.4-16.6
		c-2.6-4.6-5-8.6-7.2-12.2c-2.2-3.6-4.5-6.7-7-9.4c-2.5-2.6-5.3-4.7-8.5-6.1c-3.1-1.4-6.8-2.4-11.2-2.9V462h-31.7v-77.8
		c-4.3,0.2-8,1.1-11.2,2.7c-3.1,1.6-5.9,3.6-8.5,6.1c-2.5,2.5-5,5.6-7.4,9.4c-2.4,3.7-4.9,7.9-7.6,12.4c-2.9,5.3-6.2,10.8-10.1,16.6
		c-3.8,5.8-8.6,11.1-14.4,16c-5.8,4.9-12.8,8.9-21.2,12.1c-8.4,3.1-18.5,4.7-30.2,4.7v-32.4c7.2,0,13.2-0.8,18-2.5
		c4.8-1.7,9-4,12.6-7c3.6-3,6.7-6.5,9.4-10.6c2.6-4.1,5.4-8.5,8.3-13.3c2.6-4.8,6.7-9.7,12.2-14.8c5.5-5,10.7-9.7,15.5-14
		c-4.6-4.1-9.5-8.5-14.9-13.3c-5.4-4.8-9.4-9.5-12.1-14c-2.9-4.6-5.6-8.8-8.3-12.8c-2.6-4-5.7-7.3-9.2-10.1
		c-3.5-2.8-7.7-4.9-12.6-6.5c-4.9-1.6-11-2.3-18.2-2.3V278c11.8,0,21.7,1.5,29.9,4.5c8.2,3,15.1,6.8,20.9,11.5
		c5.8,4.7,10.6,9.8,14.6,15.3c4,5.5,7.4,10.8,10.3,15.8c2.6,4.3,5.1,8.2,7.4,11.7c2.3,3.5,4.7,6.4,7.2,8.8c2.5,2.4,5.3,4.4,8.5,5.9
		c3.1,1.6,6.8,2.5,11.2,2.7v-70.9h31.7v70.9c8.9-1,15.5-3.8,19.8-8.6c4.3-4.8,8.8-10.9,13.3-18.4l1.1-1.8c3.1-5,6.6-10.3,10.4-15.7
		c3.8-5.4,8.6-10.4,14.4-15.1s12.8-8.5,21.1-11.5c8.3-3,18.3-4.5,30.1-4.5v32.4c-7.2,0-13.3,0.8-18.2,2.3c-4.9,1.6-9.1,3.7-12.6,6.5
		c-3.5,2.8-6.5,6.1-9.2,9.9C1686.3,333.7,1683.6,337.9,1680.7,342.5z"/>
	<path fill="#FF772B" d="M1916.8,443.6c-8.4,6-18.2,11.3-29.5,16c-11.3,4.7-24.1,7-38.5,7c-11.8,0-22.6-1.7-32.6-5.2
		c-10-3.5-18.6-8.5-25.9-14.9c-7.3-6.5-13.2-14.5-17.6-24.1c-4.4-9.6-6.9-20.5-7.4-32.8v-1.8c-3.8,0.5-7.7,0.8-11.7,0.9
		c-4,0.1-7.9,0.9-11.7,2.3v-32.8c4.1-1.2,8-1.9,11.9-2.2c3.8-0.2,7.8-0.6,11.9-1.1c0.7-11.5,3.4-22.1,7.9-31.7
		c4.6-9.6,10.7-17.9,18.4-24.8c7.7-7,16.8-12.4,27.4-16.2c10.6-3.8,22.2-5.8,34.9-5.8c13.7,0,26,3,37.1,9
		c8.4,4.8,15.4,11.4,20.9,19.8c5.5,8.4,8.3,17.9,8.3,28.4c0,11-3.7,21.4-11.2,31c-7.7,10.1-16.9,16.6-27.5,19.6
		c-10.7,3-22.3,4.5-34.7,4.5c-5.5,0-11.9-0.2-19.3-0.7c-7.3-0.5-14-0.7-20-0.7c-1.7,0-3.2,0.1-4.7,0.2c-1.4,0.1-2.8,0.3-4,0.5v1.8
		c0,14.2,4.7,24.9,14.2,32.2c9.5,7.3,21.3,11,35.5,11c7.2,0,13.9-0.6,20-1.8c6.1-1.2,11.9-2.9,17.3-5s10.6-4.7,15.7-7.6
		c5-2.9,10.1-6,15.1-9.4V443.6z M1858.5,307.9c-7.4,0-14.6,1-21.4,2.9c-6.8,1.9-13,4.8-18.4,8.6c-5.4,3.8-9.8,8.7-13.3,14.6
		c-3.5,5.9-5.6,12.9-6.3,21.1l19.4-0.7c4.1,0.5,9.1,0.8,14.9,0.9c5.9,0.1,11.6,0.2,17.1,0.2c4.8,0,9.6-0.3,14.4-0.9
		c4.8-0.6,9.1-1.8,12.8-3.6c3.7-1.8,6.7-4.3,9-7.4c2.3-3.1,3.4-7.1,3.4-11.9c0-8.6-3.2-14.8-9.7-18.4S1866.7,307.9,1858.5,307.9z"/>
	<path fill="#FF772B" d="M2083.9,362.6c5,1.7,9.7,3.7,13.9,5.9c4.2,2.3,7.8,5.1,10.8,8.5c3,3.4,5.3,7.4,7,12.2
		c1.7,4.8,2.5,10.4,2.5,16.9c0,11.3-2.5,20.8-7.4,28.4c-4.9,7.7-11.3,13.9-19,18.5c-7.8,4.7-16.6,8-26.4,10.1
		c-9.8,2-19.8,3.1-29.8,3.1c-8.1,0-16-0.5-23.7-1.4c-7.7-1-14.7-2.1-21-3.4c-6.3-1.3-11.8-2.7-16.3-4.1c-4.5-1.4-7.8-2.5-9.7-3.2
		V317.6h-16.9v-32.8h3.2c6.5,0,12.8-0.4,19.1-1.3c6.2-0.8,12.5-1.7,18.7-2.5c6.2-0.8,12.7-1.7,19.3-2.5c6.6-0.8,13.4-1.3,20.3-1.3
		c8.4,0,16.8,0.8,25.2,2.3c8.4,1.6,15.9,4.4,22.5,8.5c6.6,4.1,11.9,9.6,16,16.6c4.1,7,6.1,15.8,6.1,26.6c0,4.6-0.5,8.5-1.6,11.7
		s-2.3,6.1-3.8,8.5c-1.4,2.4-3,4.5-4.7,6.3C2086.5,359.6,2085.1,361.2,2083.9,362.6z M2035.6,435c4.3,0,9.5-0.3,15.5-0.9
		c6-0.6,11.6-1.9,16.9-4c5.3-2,9.8-5,13.5-8.8c3.7-3.8,5.6-9,5.6-15.5c0-5-1.5-9.1-4.5-12.1c-3-3-6.7-5.3-11.2-6.8
		c-4.4-1.6-9.2-2.6-14.2-3.2c-5-0.6-9.5-1-13.3-1.3c-1,0.2-4.7,0.4-11.2,0.4v-33.5h12.2c2.6-0.2,5.4-0.6,8.3-1.1
		c2.9-0.5,5.5-1.4,7.7-2.7c2.3-1.3,4.1-3.2,5.6-5.8c1.4-2.5,2.2-5.8,2.2-9.9c0-4.6-1.1-8.2-3.4-11c-2.3-2.8-5.3-4.9-9-6.3
		c-3.7-1.4-7.9-2.3-12.4-2.7c-4.6-0.4-9-0.5-13.3-0.5c-4.3,0-9.4,0.4-15.1,1.1c-5.8,0.7-12.1,1.4-19.1,2.2v117.4
		c6.2,1,12.8,2,19.6,3.2C2022.9,434.4,2029.4,435,2035.6,435z"/>
	<path fill="#FF772B" d="M2213.8,330.2c9.4,0,18.6,1.4,27.7,4.1c9.1,2.8,17.2,6.8,24.1,12.2c7,5.4,12.6,12.3,16.9,20.7
		c4.3,8.4,6.5,18.1,6.5,29.2c0,12-2,22.4-6.1,31.1c-4.1,8.8-9.7,16-16.9,21.8s-15.8,10-25.7,12.8c-10,2.8-20.8,4.1-32.6,4.1
		c-9.1,0-19.1-0.7-29.9-2c-10.8-1.3-22.4-3.5-34.9-6.7v-176h33.5V336C2188.9,332.1,2201.4,330.2,2213.8,330.2z M2208.1,432.8
		c6,0,11.9-0.5,17.6-1.6c5.8-1.1,10.9-3,15.3-5.8c4.4-2.8,8-6.5,10.6-11.2c2.6-4.7,4-10.6,4-17.8c0-5.8-1.1-10.7-3.4-14.9
		c-2.3-4.2-5.4-7.6-9.4-10.3c-4-2.6-8.5-4.6-13.7-5.8c-5.2-1.2-10.6-1.8-16.4-1.8c-11,0-23.2,2.6-36.4,7.9v58.3
		c6.2,1.2,12,2,17.3,2.3C2199,432.6,2203.8,432.8,2208.1,432.8z M2358.6,282.3v180.4h-33.5V282.3H2358.6z"/>
	<path fill="#FF772B" d="M2564.1,282.3v180h-32.4v-126l-96.1,126.4h-30.2V282.3h32.4v126l96.1-126H2564.1z M2528.1,256.4
		c-3.4-1.2-6.5-2-9.5-2.5c-3-0.5-5.8-0.7-8.5-0.7c-3.4,0-6.5,0.2-9.4,0.7c-2.9,0.5-6.4,1.1-10.4,1.8c-3.8,1-7.7,1.8-11.5,2.5
		c-3.8,0.7-7.8,1.1-11.9,1.1c-6.5,0-13.2-1.2-20.2-3.6v-30.6c3.6,2.2,7,3.7,10.3,4.5c3.2,0.8,6.5,1.3,9.9,1.3c2.9,0,5.9-0.3,9-0.9
		c3.1-0.6,6.4-1.3,9.7-2c3.6-1.2,7.4-2.1,11.3-2.7c4-0.6,8.1-0.9,12.4-0.9c3.1,0,6.2,0.2,9.2,0.5c3,0.4,6.2,1.1,9.5,2.3V256.4z"/>
</g>
<path id="Fill-1" fill="#FF772B" d="M423.1,304.9c0-84.2-68.2-152.4-152.3-152.4c-38.7,0-73.8,14.5-100.7,38.3h0
	c-4.3,3.8-8.3,7.8-12.2,12.1c-73.3,67.8-46.6,169.1-82.6,205c-43.8,43.6-38.8,111.8,34.4,123.8c163.3,26.9,260.6-111.2,260.6-111.2
	C395.2,393.3,423.1,344.6,423.1,304.9"/>
<path id="Fill-3" fill="#AF4B19" d="M410.4,244.1c0,0.5,0.1,1,0.1,1.5c0,46.3-32.6,103.1-61.6,134.7c0,0-104.9,148.8-282.2,132.5
	c10.1,9,24.3,15.8,43,18.9C273,558.6,370.2,420.4,370.2,420.4c24.9-27.1,52.8-75.8,52.8-115.5C423.1,283.3,418.5,262.8,410.4,244.1"
	/>
<path id="Fill-5" fill="#454849" d="M270.7,165.1c-34,0-66.8,12.5-92.4,35.1c-3.9,3.4-7.6,7.1-11.2,11.1
	c-40.8,37.8-48.7,85.8-55.6,128.2c-5.2,32-9.8,59.7-27.4,77.3c-20,19.9-28.6,46.2-22,67c5.9,18.6,23.5,31.2,49.6,35.5
	C265.5,544.6,359,414.5,359.9,413.2c0.3-0.4,0.6-0.9,1-1.3c24.6-26.8,49.5-72.2,49.5-107C410.5,227.8,347.8,165.1,270.7,165.1
	 M152.2,547.8c-14.3,0-29.1-1.2-44.6-3.7c-35.8-5.9-60.5-24.6-69.5-52.6c-9.7-30.2,1.2-65.6,28.2-92.6
	c11.9-11.8,15.8-35.8,20.3-63.5c7.2-44,16.2-98.9,62.6-141.8c3.4-3.8,7.8-8.2,12.4-12.3c30.2-26.7,69-41.4,109.1-41.4
	c90.9,0,164.9,74,164.9,165c0,42.9-28.7,93.9-55.6,123.5C372.2,439.3,290.2,547.8,152.2,547.8"/>
<path id="Fill-7" fill="#454849" d="M339.6,178.7c-3.5,0-7-1.4-9.4-4.3c-4.6-5.2-4.1-13.2,1.1-17.8c40.3-35.6,46.4-104.1,46.4-104.8
	c0.6-6.9,6.8-12.1,13.6-11.5c6.9,0.6,12.1,6.6,11.5,13.6c-0.3,3.2-6.9,79.3-54.9,121.7C345.5,177.7,342.6,178.7,339.6,178.7"/>
<path id="Fill-9" fill="#3BB777" d="M531.2,150.3c-118-112.5-166.9,4-166.9,4S418.8,268.3,531.2,150.3"/>
<path id="Fill-11" fill="#229857" d="M531.2,150.3l-166.9,4C364.3,154.3,418.8,268.3,531.2,150.3"/>
<path id="Fill-13" fill="#454849" d="M378.6,153.9c6.3,10.2,22.9,32.5,49,36.6c25.2,4,53.9-9.4,85.4-39.8
	c-33-28.9-62.4-40.9-87.4-35.6C399.6,120.5,384.3,143.4,378.6,153.9 M436.4,216.4c-4.3,0-8.6-0.3-12.9-1
	c-47-7.5-69.6-53.7-70.5-55.7c-1.5-3.2-1.6-7-0.3-10.3c0.8-2,21.2-49.3,67.8-59c36-7.6,76.2,9.5,119.4,50.7c2.4,2.3,3.8,5.5,3.9,8.8
	c0.1,3.3-1.2,6.6-3.5,9C504,197.1,469.1,216.4,436.4,216.4"/>
<path id="Fill-15" fill="#FEFEFE" d="M144.2,327.9c-0.5,0-0.9,0-1.4-0.1c-5.2-0.8-8.7-5.6-8-10.7c0.4-2.6,9.7-63.4,45-91.1
	c4.1-3.2,10-2.5,13.3,1.6c3.2,4.1,2.5,10-1.6,13.3c-29.4,23.1-37.9,78.4-37.9,79C152.9,324.5,148.8,327.9,144.2,327.9"/>
<path id="Fill-17" fill="#FEFEFE" d="M222.8,203.7c5.2,4.4,5.9,12.2,1.4,17.4c-4.4,5.2-12.2,5.9-17.4,1.4
	c-5.2-4.4-5.9-12.2-1.4-17.4C209.8,199.9,217.6,199.3,222.8,203.7"/>
<g>
	<path id="Fill-9_1_" fill="#3BB777" d="M3665.3,239.9c-73.4,5-49.5,56.8-49.5,56.8S3670.3,313.3,3665.3,239.9"/>
	<path id="Fill-11_1_" fill="#229857" d="M3665.3,239.9l-49.5,56.8C3615.8,296.7,3670.3,313.3,3665.3,239.9"/>
	<path id="Fill-13_1_" fill="#454849" d="M3620,291.8c5.3,1,17.8,2.3,27.1-5.2c9-7.2,13.3-20.8,12.8-40.6
		c-19.7,2.2-32.6,8.3-38.5,18.2C3615.3,274.6,3618.3,286.7,3620,291.8 M3658.4,291.6c-1.3,1.4-2.7,2.8-4.3,4
		c-16.8,13.4-39.1,6.8-40,6.5c-1.6-0.5-2.8-1.6-3.5-3.1c-0.4-0.9-10-22.1,1-40.5c8.5-14.3,26.4-22.5,53.3-24.3
		c1.5-0.1,3,0.4,4.1,1.4c1.1,1,1.8,2.4,1.9,3.9C3672.6,263.2,3668.4,280.7,3658.4,291.6"/>
</g>
</svg>
